<svg xmlns="http://www.w3.org/2000/svg" width="32" height="32" viewBox="0 0 24 24" fill="none" stroke="#c7a75b" stroke-width="2" stroke-linecap="round" stroke-linejoin="round">
    <path d="M12 2a3 3 0 0 0-3 3 3 3 0 0 0 3 3 3 3 0 0 0 3-3 3 3 0 0 0-3-3Z"></path>
    <path d="M19 8a2 2 0 0 0-2 2 2 2 0 0 0 2 2 2 2 0 0 0 2-2 2 2 0 0 0-2-2Z"></path>
    <path d="M5 8a2 2 0 0 0-2 2 2 2 0 0 0 2 2 2 2 0 0 0 2-2 2 2 0 0 0-2-2Z"></path>
    <path d="M12 22c-4 0-7-2-7-5 0-3 2-6 7-6s7 3 7 6-3 5-7 5Z"></path>
</svg>
